%TF.GenerationSoftware,KiCad,Pcbnew,7.0.10*%
%TF.CreationDate,2024-01-21T17:13:34-08:00*%
%TF.ProjectId,motor_pcb,6d6f746f-725f-4706-9362-2e6b69636164,rev?*%
%TF.SameCoordinates,Original*%
%TF.FileFunction,Legend,Top*%
%TF.FilePolarity,Positive*%
%FSLAX46Y46*%
G04 Gerber Fmt 4.6, Leading zero omitted, Abs format (unit mm)*
G04 Created by KiCad (PCBNEW 7.0.10) date 2024-01-21 17:13:34*
%MOMM*%
%LPD*%
G01*
G04 APERTURE LIST*
%ADD10C,0.150000*%
%ADD11C,0.120000*%
G04 APERTURE END LIST*
D10*
X100733333Y-56804819D02*
X100400000Y-56328628D01*
X100161905Y-56804819D02*
X100161905Y-55804819D01*
X100161905Y-55804819D02*
X100542857Y-55804819D01*
X100542857Y-55804819D02*
X100638095Y-55852438D01*
X100638095Y-55852438D02*
X100685714Y-55900057D01*
X100685714Y-55900057D02*
X100733333Y-55995295D01*
X100733333Y-55995295D02*
X100733333Y-56138152D01*
X100733333Y-56138152D02*
X100685714Y-56233390D01*
X100685714Y-56233390D02*
X100638095Y-56281009D01*
X100638095Y-56281009D02*
X100542857Y-56328628D01*
X100542857Y-56328628D02*
X100161905Y-56328628D01*
X101066667Y-55804819D02*
X101685714Y-55804819D01*
X101685714Y-55804819D02*
X101352381Y-56185771D01*
X101352381Y-56185771D02*
X101495238Y-56185771D01*
X101495238Y-56185771D02*
X101590476Y-56233390D01*
X101590476Y-56233390D02*
X101638095Y-56281009D01*
X101638095Y-56281009D02*
X101685714Y-56376247D01*
X101685714Y-56376247D02*
X101685714Y-56614342D01*
X101685714Y-56614342D02*
X101638095Y-56709580D01*
X101638095Y-56709580D02*
X101590476Y-56757200D01*
X101590476Y-56757200D02*
X101495238Y-56804819D01*
X101495238Y-56804819D02*
X101209524Y-56804819D01*
X101209524Y-56804819D02*
X101114286Y-56757200D01*
X101114286Y-56757200D02*
X101066667Y-56709580D01*
X99886905Y-50304819D02*
X99886905Y-49304819D01*
X99886905Y-49304819D02*
X100125000Y-49304819D01*
X100125000Y-49304819D02*
X100267857Y-49352438D01*
X100267857Y-49352438D02*
X100363095Y-49447676D01*
X100363095Y-49447676D02*
X100410714Y-49542914D01*
X100410714Y-49542914D02*
X100458333Y-49733390D01*
X100458333Y-49733390D02*
X100458333Y-49876247D01*
X100458333Y-49876247D02*
X100410714Y-50066723D01*
X100410714Y-50066723D02*
X100363095Y-50161961D01*
X100363095Y-50161961D02*
X100267857Y-50257200D01*
X100267857Y-50257200D02*
X100125000Y-50304819D01*
X100125000Y-50304819D02*
X99886905Y-50304819D01*
X101410714Y-50304819D02*
X100839286Y-50304819D01*
X101125000Y-50304819D02*
X101125000Y-49304819D01*
X101125000Y-49304819D02*
X101029762Y-49447676D01*
X101029762Y-49447676D02*
X100934524Y-49542914D01*
X100934524Y-49542914D02*
X100839286Y-49590533D01*
X73708333Y-36454819D02*
X73375000Y-35978628D01*
X73136905Y-36454819D02*
X73136905Y-35454819D01*
X73136905Y-35454819D02*
X73517857Y-35454819D01*
X73517857Y-35454819D02*
X73613095Y-35502438D01*
X73613095Y-35502438D02*
X73660714Y-35550057D01*
X73660714Y-35550057D02*
X73708333Y-35645295D01*
X73708333Y-35645295D02*
X73708333Y-35788152D01*
X73708333Y-35788152D02*
X73660714Y-35883390D01*
X73660714Y-35883390D02*
X73613095Y-35931009D01*
X73613095Y-35931009D02*
X73517857Y-35978628D01*
X73517857Y-35978628D02*
X73136905Y-35978628D01*
X74089286Y-35550057D02*
X74136905Y-35502438D01*
X74136905Y-35502438D02*
X74232143Y-35454819D01*
X74232143Y-35454819D02*
X74470238Y-35454819D01*
X74470238Y-35454819D02*
X74565476Y-35502438D01*
X74565476Y-35502438D02*
X74613095Y-35550057D01*
X74613095Y-35550057D02*
X74660714Y-35645295D01*
X74660714Y-35645295D02*
X74660714Y-35740533D01*
X74660714Y-35740533D02*
X74613095Y-35883390D01*
X74613095Y-35883390D02*
X74041667Y-36454819D01*
X74041667Y-36454819D02*
X74660714Y-36454819D01*
X117683333Y-68854819D02*
X117350000Y-68378628D01*
X117111905Y-68854819D02*
X117111905Y-67854819D01*
X117111905Y-67854819D02*
X117492857Y-67854819D01*
X117492857Y-67854819D02*
X117588095Y-67902438D01*
X117588095Y-67902438D02*
X117635714Y-67950057D01*
X117635714Y-67950057D02*
X117683333Y-68045295D01*
X117683333Y-68045295D02*
X117683333Y-68188152D01*
X117683333Y-68188152D02*
X117635714Y-68283390D01*
X117635714Y-68283390D02*
X117588095Y-68331009D01*
X117588095Y-68331009D02*
X117492857Y-68378628D01*
X117492857Y-68378628D02*
X117111905Y-68378628D01*
X118635714Y-68854819D02*
X118064286Y-68854819D01*
X118350000Y-68854819D02*
X118350000Y-67854819D01*
X118350000Y-67854819D02*
X118254762Y-67997676D01*
X118254762Y-67997676D02*
X118159524Y-68092914D01*
X118159524Y-68092914D02*
X118064286Y-68140533D01*
X90161905Y-67554819D02*
X90161905Y-66554819D01*
X90161905Y-66554819D02*
X90400000Y-66554819D01*
X90400000Y-66554819D02*
X90542857Y-66602438D01*
X90542857Y-66602438D02*
X90638095Y-66697676D01*
X90638095Y-66697676D02*
X90685714Y-66792914D01*
X90685714Y-66792914D02*
X90733333Y-66983390D01*
X90733333Y-66983390D02*
X90733333Y-67126247D01*
X90733333Y-67126247D02*
X90685714Y-67316723D01*
X90685714Y-67316723D02*
X90638095Y-67411961D01*
X90638095Y-67411961D02*
X90542857Y-67507200D01*
X90542857Y-67507200D02*
X90400000Y-67554819D01*
X90400000Y-67554819D02*
X90161905Y-67554819D01*
X91114286Y-66650057D02*
X91161905Y-66602438D01*
X91161905Y-66602438D02*
X91257143Y-66554819D01*
X91257143Y-66554819D02*
X91495238Y-66554819D01*
X91495238Y-66554819D02*
X91590476Y-66602438D01*
X91590476Y-66602438D02*
X91638095Y-66650057D01*
X91638095Y-66650057D02*
X91685714Y-66745295D01*
X91685714Y-66745295D02*
X91685714Y-66840533D01*
X91685714Y-66840533D02*
X91638095Y-66983390D01*
X91638095Y-66983390D02*
X91066667Y-67554819D01*
X91066667Y-67554819D02*
X91685714Y-67554819D01*
D11*
%TO.C,R3*%
X101127064Y-55435000D02*
X100672936Y-55435000D01*
X101127064Y-53965000D02*
X100672936Y-53965000D01*
%TO.C,D1*%
X102485000Y-49160000D02*
X102485000Y-47240000D01*
X99625000Y-49160000D02*
X102485000Y-49160000D01*
X102485000Y-47240000D02*
X99625000Y-47240000D01*
%TO.C,R2*%
X74102064Y-33615000D02*
X73647936Y-33615000D01*
X74102064Y-35085000D02*
X73647936Y-35085000D01*
%TO.C,R1*%
X118077064Y-66015000D02*
X117622936Y-66015000D01*
X118077064Y-67485000D02*
X117622936Y-67485000D01*
%TO.C,D2*%
X89040000Y-69710000D02*
X91900000Y-69710000D01*
X91900000Y-67790000D02*
X89040000Y-67790000D01*
X89040000Y-67790000D02*
X89040000Y-69710000D01*
%TD*%
M02*
