M48
; DRILL file {KiCad 7.0.10} date Sunday, January 21, 2024 at 05:13:37 PM
; FORMAT={-:-/ absolute / inch / decimal}
; #@! TF.CreationDate,2024-01-21T17:13:37-08:00
; #@! TF.GenerationSoftware,Kicad,Pcbnew,7.0.10
; #@! TF.FileFunction,Plated,1,2,PTH
FMAT,2
INCH
; #@! TA.AperFunction,Plated,PTH,ComponentDrill
T1C0.0335
; #@! TA.AperFunction,Plated,PTH,ComponentDrill
T2C0.0394
; #@! TA.AperFunction,Plated,PTH,ComponentDrill
T3C0.0400
; #@! TA.AperFunction,Plated,PTH,ComponentDrill
T4C0.0512
; #@! TA.AperFunction,Plated,PTH,ComponentDrill
T5C0.0669
%
G90
G05
T1
X2.25Y-2.45
X2.25Y-2.75
X3.15Y-2.45
X3.15Y-2.75
T2
X4.9Y-2.9
X5.0Y-2.9
X5.1Y-2.9
X5.1173Y-1.4425
X5.1173Y-1.5425
X5.1173Y-1.6425
X5.1173Y-1.7425
T3
X3.2Y-1.1
X3.2Y-1.2
X3.2Y-1.3
X3.2Y-1.4
X3.2Y-1.5
X3.2Y-1.6
X3.2Y-1.7
X3.8Y-1.1
X3.8Y-1.2
X3.8Y-1.3
X3.8Y-1.4
X3.8Y-1.5
X3.8Y-1.6
X3.8Y-1.7
T4
X2.5Y-1.2063
X2.5Y-1.4031
X2.5Y-1.6
X3.873Y-2.6476
X3.873Y-2.8445
X4.3652Y-2.6476
X4.3652Y-2.8445
T5
X3.5031Y-2.2
X3.7Y-2.2
X4.9921Y-2.4016
X4.9921Y-2.5984
M30
