%TF.GenerationSoftware,KiCad,Pcbnew,7.0.10*%
%TF.CreationDate,2024-01-21T17:13:34-08:00*%
%TF.ProjectId,motor_pcb,6d6f746f-725f-4706-9362-2e6b69636164,rev?*%
%TF.SameCoordinates,Original*%
%TF.FileFunction,Legend,Bot*%
%TF.FilePolarity,Positive*%
%FSLAX46Y46*%
G04 Gerber Fmt 4.6, Leading zero omitted, Abs format (unit mm)*
G04 Created by KiCad (PCBNEW 7.0.10) date 2024-01-21 17:13:34*
%MOMM*%
%LPD*%
G01*
G04 APERTURE LIST*
%ADD10C,0.150000*%
%ADD11C,0.100000*%
%ADD12C,0.120000*%
G04 APERTURE END LIST*
D10*
X91813333Y-60234819D02*
X91813333Y-60949104D01*
X91813333Y-60949104D02*
X91860952Y-61091961D01*
X91860952Y-61091961D02*
X91956190Y-61187200D01*
X91956190Y-61187200D02*
X92099047Y-61234819D01*
X92099047Y-61234819D02*
X92194285Y-61234819D01*
X90813333Y-61234819D02*
X91384761Y-61234819D01*
X91099047Y-61234819D02*
X91099047Y-60234819D01*
X91099047Y-60234819D02*
X91194285Y-60377676D01*
X91194285Y-60377676D02*
X91289523Y-60472914D01*
X91289523Y-60472914D02*
X91384761Y-60520533D01*
D11*
X70659523Y-47447419D02*
X70659523Y-46447419D01*
X70659523Y-46447419D02*
X70326190Y-47161704D01*
X70326190Y-47161704D02*
X69992857Y-46447419D01*
X69992857Y-46447419D02*
X69992857Y-47447419D01*
X68992857Y-47447419D02*
X69564285Y-47447419D01*
X69278571Y-47447419D02*
X69278571Y-46447419D01*
X69278571Y-46447419D02*
X69373809Y-46590276D01*
X69373809Y-46590276D02*
X69469047Y-46685514D01*
X69469047Y-46685514D02*
X69564285Y-46733133D01*
X90811904Y-46182419D02*
X90811904Y-46991942D01*
X90811904Y-46991942D02*
X90764285Y-47087180D01*
X90764285Y-47087180D02*
X90716666Y-47134800D01*
X90716666Y-47134800D02*
X90621428Y-47182419D01*
X90621428Y-47182419D02*
X90430952Y-47182419D01*
X90430952Y-47182419D02*
X90335714Y-47134800D01*
X90335714Y-47134800D02*
X90288095Y-47087180D01*
X90288095Y-47087180D02*
X90240476Y-46991942D01*
X90240476Y-46991942D02*
X90240476Y-46182419D01*
X89240476Y-47182419D02*
X89811904Y-47182419D01*
X89526190Y-47182419D02*
X89526190Y-46182419D01*
X89526190Y-46182419D02*
X89621428Y-46325276D01*
X89621428Y-46325276D02*
X89716666Y-46420514D01*
X89716666Y-46420514D02*
X89811904Y-46468133D01*
D10*
X122537200Y-72326667D02*
X122584819Y-72469524D01*
X122584819Y-72469524D02*
X122584819Y-72707619D01*
X122584819Y-72707619D02*
X122537200Y-72802857D01*
X122537200Y-72802857D02*
X122489580Y-72850476D01*
X122489580Y-72850476D02*
X122394342Y-72898095D01*
X122394342Y-72898095D02*
X122299104Y-72898095D01*
X122299104Y-72898095D02*
X122203866Y-72850476D01*
X122203866Y-72850476D02*
X122156247Y-72802857D01*
X122156247Y-72802857D02*
X122108628Y-72707619D01*
X122108628Y-72707619D02*
X122061009Y-72517143D01*
X122061009Y-72517143D02*
X122013390Y-72421905D01*
X122013390Y-72421905D02*
X121965771Y-72374286D01*
X121965771Y-72374286D02*
X121870533Y-72326667D01*
X121870533Y-72326667D02*
X121775295Y-72326667D01*
X121775295Y-72326667D02*
X121680057Y-72374286D01*
X121680057Y-72374286D02*
X121632438Y-72421905D01*
X121632438Y-72421905D02*
X121584819Y-72517143D01*
X121584819Y-72517143D02*
X121584819Y-72755238D01*
X121584819Y-72755238D02*
X121632438Y-72898095D01*
X121584819Y-73231429D02*
X122584819Y-73469524D01*
X122584819Y-73469524D02*
X121870533Y-73660000D01*
X121870533Y-73660000D02*
X122584819Y-73850476D01*
X122584819Y-73850476D02*
X121584819Y-74088572D01*
X121680057Y-74421905D02*
X121632438Y-74469524D01*
X121632438Y-74469524D02*
X121584819Y-74564762D01*
X121584819Y-74564762D02*
X121584819Y-74802857D01*
X121584819Y-74802857D02*
X121632438Y-74898095D01*
X121632438Y-74898095D02*
X121680057Y-74945714D01*
X121680057Y-74945714D02*
X121775295Y-74993333D01*
X121775295Y-74993333D02*
X121870533Y-74993333D01*
X121870533Y-74993333D02*
X122013390Y-74945714D01*
X122013390Y-74945714D02*
X122584819Y-74374286D01*
X122584819Y-74374286D02*
X122584819Y-74993333D01*
X106128332Y-62997200D02*
X105985475Y-63044819D01*
X105985475Y-63044819D02*
X105747380Y-63044819D01*
X105747380Y-63044819D02*
X105652142Y-62997200D01*
X105652142Y-62997200D02*
X105604523Y-62949580D01*
X105604523Y-62949580D02*
X105556904Y-62854342D01*
X105556904Y-62854342D02*
X105556904Y-62759104D01*
X105556904Y-62759104D02*
X105604523Y-62663866D01*
X105604523Y-62663866D02*
X105652142Y-62616247D01*
X105652142Y-62616247D02*
X105747380Y-62568628D01*
X105747380Y-62568628D02*
X105937856Y-62521009D01*
X105937856Y-62521009D02*
X106033094Y-62473390D01*
X106033094Y-62473390D02*
X106080713Y-62425771D01*
X106080713Y-62425771D02*
X106128332Y-62330533D01*
X106128332Y-62330533D02*
X106128332Y-62235295D01*
X106128332Y-62235295D02*
X106080713Y-62140057D01*
X106080713Y-62140057D02*
X106033094Y-62092438D01*
X106033094Y-62092438D02*
X105937856Y-62044819D01*
X105937856Y-62044819D02*
X105699761Y-62044819D01*
X105699761Y-62044819D02*
X105556904Y-62092438D01*
X105223570Y-62044819D02*
X104985475Y-63044819D01*
X104985475Y-63044819D02*
X104794999Y-62330533D01*
X104794999Y-62330533D02*
X104604523Y-63044819D01*
X104604523Y-63044819D02*
X104366428Y-62044819D01*
X103461666Y-63044819D02*
X104033094Y-63044819D01*
X103747380Y-63044819D02*
X103747380Y-62044819D01*
X103747380Y-62044819D02*
X103842618Y-62187676D01*
X103842618Y-62187676D02*
X103937856Y-62282914D01*
X103937856Y-62282914D02*
X104033094Y-62330533D01*
X64095238Y-26844819D02*
X64428571Y-26368628D01*
X64666666Y-26844819D02*
X64666666Y-25844819D01*
X64666666Y-25844819D02*
X64285714Y-25844819D01*
X64285714Y-25844819D02*
X64190476Y-25892438D01*
X64190476Y-25892438D02*
X64142857Y-25940057D01*
X64142857Y-25940057D02*
X64095238Y-26035295D01*
X64095238Y-26035295D02*
X64095238Y-26178152D01*
X64095238Y-26178152D02*
X64142857Y-26273390D01*
X64142857Y-26273390D02*
X64190476Y-26321009D01*
X64190476Y-26321009D02*
X64285714Y-26368628D01*
X64285714Y-26368628D02*
X64666666Y-26368628D01*
X63809523Y-25844819D02*
X63476190Y-26844819D01*
X63476190Y-26844819D02*
X63142857Y-25844819D01*
X62285714Y-26844819D02*
X62857142Y-26844819D01*
X62571428Y-26844819D02*
X62571428Y-25844819D01*
X62571428Y-25844819D02*
X62666666Y-25987676D01*
X62666666Y-25987676D02*
X62761904Y-26082914D01*
X62761904Y-26082914D02*
X62857142Y-26130533D01*
X131631009Y-62714285D02*
X131678628Y-62857142D01*
X131678628Y-62857142D02*
X131726247Y-62904761D01*
X131726247Y-62904761D02*
X131821485Y-62952380D01*
X131821485Y-62952380D02*
X131964342Y-62952380D01*
X131964342Y-62952380D02*
X132059580Y-62904761D01*
X132059580Y-62904761D02*
X132107200Y-62857142D01*
X132107200Y-62857142D02*
X132154819Y-62761904D01*
X132154819Y-62761904D02*
X132154819Y-62380952D01*
X132154819Y-62380952D02*
X131154819Y-62380952D01*
X131154819Y-62380952D02*
X131154819Y-62714285D01*
X131154819Y-62714285D02*
X131202438Y-62809523D01*
X131202438Y-62809523D02*
X131250057Y-62857142D01*
X131250057Y-62857142D02*
X131345295Y-62904761D01*
X131345295Y-62904761D02*
X131440533Y-62904761D01*
X131440533Y-62904761D02*
X131535771Y-62857142D01*
X131535771Y-62857142D02*
X131583390Y-62809523D01*
X131583390Y-62809523D02*
X131631009Y-62714285D01*
X131631009Y-62714285D02*
X131631009Y-62380952D01*
X131154819Y-63238095D02*
X131154819Y-63809523D01*
X132154819Y-63523809D02*
X131154819Y-63523809D01*
X132154819Y-64666666D02*
X132154819Y-64095238D01*
X132154819Y-64380952D02*
X131154819Y-64380952D01*
X131154819Y-64380952D02*
X131297676Y-64285714D01*
X131297676Y-64285714D02*
X131392914Y-64190476D01*
X131392914Y-64190476D02*
X131440533Y-64095238D01*
X119057009Y-39473333D02*
X119104628Y-39616190D01*
X119104628Y-39616190D02*
X119152247Y-39663809D01*
X119152247Y-39663809D02*
X119247485Y-39711428D01*
X119247485Y-39711428D02*
X119390342Y-39711428D01*
X119390342Y-39711428D02*
X119485580Y-39663809D01*
X119485580Y-39663809D02*
X119533200Y-39616190D01*
X119533200Y-39616190D02*
X119580819Y-39520952D01*
X119580819Y-39520952D02*
X119580819Y-39140000D01*
X119580819Y-39140000D02*
X118580819Y-39140000D01*
X118580819Y-39140000D02*
X118580819Y-39473333D01*
X118580819Y-39473333D02*
X118628438Y-39568571D01*
X118628438Y-39568571D02*
X118676057Y-39616190D01*
X118676057Y-39616190D02*
X118771295Y-39663809D01*
X118771295Y-39663809D02*
X118866533Y-39663809D01*
X118866533Y-39663809D02*
X118961771Y-39616190D01*
X118961771Y-39616190D02*
X119009390Y-39568571D01*
X119009390Y-39568571D02*
X119057009Y-39473333D01*
X119057009Y-39473333D02*
X119057009Y-39140000D01*
X119580819Y-40140000D02*
X118914152Y-40140000D01*
X119104628Y-40140000D02*
X119009390Y-40187619D01*
X119009390Y-40187619D02*
X118961771Y-40235238D01*
X118961771Y-40235238D02*
X118914152Y-40330476D01*
X118914152Y-40330476D02*
X118914152Y-40425714D01*
X119580819Y-41187619D02*
X118580819Y-41187619D01*
X119533200Y-41187619D02*
X119580819Y-41092381D01*
X119580819Y-41092381D02*
X119580819Y-40901905D01*
X119580819Y-40901905D02*
X119533200Y-40806667D01*
X119533200Y-40806667D02*
X119485580Y-40759048D01*
X119485580Y-40759048D02*
X119390342Y-40711429D01*
X119390342Y-40711429D02*
X119104628Y-40711429D01*
X119104628Y-40711429D02*
X119009390Y-40759048D01*
X119009390Y-40759048D02*
X118961771Y-40806667D01*
X118961771Y-40806667D02*
X118914152Y-40901905D01*
X118914152Y-40901905D02*
X118914152Y-41092381D01*
X118914152Y-41092381D02*
X118961771Y-41187619D01*
X119580819Y-42187619D02*
X119580819Y-41616191D01*
X119580819Y-41901905D02*
X118580819Y-41901905D01*
X118580819Y-41901905D02*
X118723676Y-41806667D01*
X118723676Y-41806667D02*
X118818914Y-41711429D01*
X118818914Y-41711429D02*
X118866533Y-41616191D01*
D12*
%TO.C,J1*%
X85570000Y-56180000D02*
X86170000Y-55880000D01*
X86370000Y-50970000D02*
X96590000Y-50970000D01*
X86170000Y-55880000D02*
X85570000Y-55580000D01*
X85570000Y-55580000D02*
X85570000Y-56180000D01*
X96590000Y-50970000D02*
X96590000Y-59690000D01*
X96590000Y-59690000D02*
X86370000Y-59690000D01*
X86370000Y-59690000D02*
X86370000Y-50970000D01*
D11*
%TO.C,U1*%
X92710000Y-25400000D02*
X92710000Y-29210000D01*
X92710000Y-29210000D02*
X85090000Y-29210000D01*
X85090000Y-29210000D02*
X85090000Y-25400000D01*
D12*
%TO.C,SW2*%
X130870000Y-72330000D02*
X130870000Y-74990000D01*
X125730000Y-72330000D02*
X130870000Y-72330000D01*
X124460000Y-72330000D02*
X123130000Y-72330000D01*
X125730000Y-74990000D02*
X130870000Y-74990000D01*
X123130000Y-72330000D02*
X123130000Y-73660000D01*
X125730000Y-72330000D02*
X125730000Y-74990000D01*
%TO.C,SW1*%
X98475000Y-63600000D02*
X98475000Y-66320000D01*
X110775000Y-66320000D02*
X110775000Y-63600000D01*
X110775000Y-71320000D02*
X110775000Y-68180000D01*
X110775000Y-63600000D02*
X98475000Y-63600000D01*
X98475000Y-73180000D02*
X98475000Y-75900000D01*
X98475000Y-68180000D02*
X98475000Y-71320000D01*
X98475000Y-75900000D02*
X110775000Y-75900000D01*
X110775000Y-75900000D02*
X110775000Y-73180000D01*
X109104050Y-69790000D02*
G75*
G03*
X99945950Y-69790000I-4579050J0D01*
G01*
X99945950Y-69790000D02*
G75*
G03*
X109104050Y-69790000I4579050J0D01*
G01*
%TO.C,RV1*%
X69620000Y-27520000D02*
X69620000Y-43760000D01*
X69620000Y-27520000D02*
X61880000Y-27520000D01*
X61880000Y-32020000D02*
X61880000Y-39260000D01*
X56880000Y-33520000D02*
X46880000Y-33520000D01*
X56880000Y-33520000D02*
X56880000Y-37760000D01*
X46880000Y-33520000D02*
X46880000Y-37760000D01*
X56880000Y-32020000D02*
X56880000Y-39260000D01*
X61880000Y-32020000D02*
X56880000Y-32020000D01*
X56880000Y-37760000D02*
X46880000Y-37760000D01*
X69620000Y-43760000D02*
X61880000Y-43760000D01*
X61880000Y-27520000D02*
X61880000Y-43760000D01*
X61880000Y-39260000D02*
X56880000Y-39260000D01*
%TO.C,BT1*%
X127100000Y-69410000D02*
X126800000Y-68810000D01*
X121890000Y-68610000D02*
X121890000Y-58390000D01*
X126800000Y-68810000D02*
X126500000Y-69410000D01*
X126500000Y-69410000D02*
X127100000Y-69410000D01*
X121890000Y-58390000D02*
X130610000Y-58390000D01*
X130610000Y-58390000D02*
X130610000Y-68610000D01*
X130610000Y-68610000D02*
X121890000Y-68610000D01*
%TO.C,Brd1*%
X128397000Y-27178000D02*
X128385000Y-27432000D01*
X111760000Y-27178000D02*
X128397000Y-27178000D01*
X111785000Y-30518000D02*
X111760000Y-27178000D01*
X128385000Y-30518000D02*
X128385000Y-27432000D01*
X131191000Y-45339000D02*
X128778000Y-45339000D01*
X128778000Y-35560000D02*
X128778000Y-45339000D01*
X131191000Y-35560000D02*
X128778000Y-35560000D01*
X131191000Y-45339000D02*
X131191000Y-35560000D01*
X128385000Y-53618000D02*
X128385000Y-30518000D01*
X111785000Y-53618000D02*
X128385000Y-53618000D01*
X111785000Y-30518000D02*
X111785000Y-53618000D01*
X104380000Y-54040000D02*
X131680000Y-54040000D01*
X104380000Y-26640000D02*
X104380000Y-54040000D01*
X131680000Y-26640000D02*
X104380000Y-26640000D01*
X131680000Y-54040000D02*
X131680000Y-26640000D01*
%TD*%
M02*
